<svg width="43" height="42" viewBox="0 0 43 42" fill="none" xmlns="http://www.w3.org/2000/svg">
<rect x="0.892578" y="0.0332031" width="41.6634" height="41.6634" rx="13.8878" fill="white"/>
<path d="M16.5608 11.9217C15.5781 12.9225 15.5781 14.5421 16.579 15.5429L18.7626 17.7266C20.8189 19.7829 20.8189 23.1311 18.7626 25.1874L14.7592 21.184C13.7311 20.1559 13.2125 18.8002 13.2125 17.4536C13.2125 16.107 13.7311 14.7513 14.7592 13.7232L16.5335 11.949C16.5426 11.9399 16.5517 11.9308 16.5608 11.9217Z" fill="#1F9FDB"/>
<path d="M18.3077 17.2706L16.579 15.5419C15.5782 14.541 15.5691 12.9306 16.5608 11.9206C17.5434 10.9562 19.1084 10.9744 20.082 11.9479C20.5733 12.4393 20.8189 13.0853 20.8189 13.7222C20.8189 14.3591 20.5733 15.0051 20.082 15.4964L19.6725 15.9058" fill="#1F9FDB"/>
<path d="M26.8876 29.8002C27.8703 28.7994 27.8703 27.1798 26.8694 26.179L24.6858 23.9953C22.6295 21.939 22.6295 18.5907 24.6858 16.5345L28.6891 20.5378C29.7173 21.566 30.2359 22.9217 30.2359 24.2683C30.2359 25.6149 29.7173 26.9706 28.6891 27.9987L26.9149 29.7729C26.8967 29.7911 26.8876 29.8002 26.8876 29.8002Z" fill="#1F9FDB"/>
<path d="M25.131 24.4589L26.8597 26.1876C27.8606 27.1885 27.8697 28.7989 26.8779 29.8088C25.8953 30.7733 24.3303 30.7551 23.3567 29.7816C22.8654 29.2902 22.6198 28.6442 22.6198 28.0073C22.6198 27.3704 22.8654 26.7244 23.3567 26.2331L23.7753 25.8146" fill="#1F9FDB"/>
</svg>
