<svg width="232" height="154" viewBox="0 0 232 154" fill="none" xmlns="http://www.w3.org/2000/svg">
<g clip-path="url(#clip0_89_28969)">
<path d="M181.393 96.3936H168.722C165.617 96.3936 163.016 94.2807 163.016 91.6045C163.016 90.2664 163.687 89.0691 164.694 88.2239C165.701 87.379 167.128 86.8153 168.722 86.8153H170.568C172.162 86.8153 173.589 86.2519 174.596 85.4067C175.603 84.5618 176.274 83.3644 176.274 82.0264C176.274 79.4205 173.757 77.2373 170.568 77.2373H131.867C130.856 77.2373 130.206 75.9945 130.206 74.9835C130.206 72.4481 127.772 70.4056 124.751 70.4056H110.349C109.985 70.4056 109.636 70.2609 109.378 70.0034C109.121 69.7458 108.976 69.3965 108.976 69.0323C108.976 68.6681 109.121 68.3188 109.378 68.0612C109.636 67.8037 109.985 67.659 110.349 67.659H165.533C167.967 67.659 170.232 66.8138 171.827 65.4758C173.421 64.1375 174.428 62.2361 174.428 60.1936C174.428 56.0384 170.4 52.7282 165.533 52.7282H137.031C132.559 52.7282 128.133 49.2773 123.661 49.2773H107.747C105.413 49.2773 103.521 47.3854 103.521 45.0515C103.521 42.7179 105.413 40.826 107.747 40.826H143.38C145.059 40.826 146.653 40.2624 147.744 39.3469C148.835 38.4313 149.506 37.1637 149.506 35.6847C149.506 32.8676 146.737 30.5435 143.38 30.5435H61.2292C59.5511 30.5435 57.9567 31.1068 56.8658 32.0224C55.775 32.9379 55.1036 34.2058 55.1036 35.6847C55.1036 38.5019 57.8728 40.826 61.2292 40.826H63.3272C66.0961 40.826 68.4459 42.7274 68.4459 45.1221C68.4459 46.3192 67.8584 47.3757 66.9354 48.1505C66.0124 48.9252 64.7537 49.4182 63.3272 49.4182H53.1737C51.4114 49.4182 49.7331 50.0519 48.5583 51.038C47.3836 52.0239 46.6284 53.3621 46.6284 54.9116C46.6284 57.9401 49.5652 60.3345 53.0898 60.3345H63.4111C66.7675 60.3345 69.5367 62.6586 69.5367 65.4758C69.5367 66.8844 68.8653 68.1521 67.7744 69.0676C66.6836 69.9831 65.1731 70.5465 63.4948 70.5465H54.2645C52.754 70.5465 51.4114 71.0396 50.4045 71.8848C49.3976 72.7297 48.8101 73.8567 48.8101 75.1244C48.8101 77.6598 51.2436 79.7023 54.2645 79.7023H61.7328C66.0124 79.7023 69.4528 82.5898 69.4528 86.1816C69.4528 87.9423 68.6135 89.6325 67.1872 90.7593C65.7606 91.9566 63.8305 92.6609 61.7328 92.6609H51.3275C49.2298 92.6609 47.2996 93.3652 45.957 94.5625C44.5304 95.6893 43.6914 97.3091 43.6914 99.0699C43.6914 102.591 47.1318 105.479 51.3275 105.479H83.457C87.0054 105.479 90.491 107.451 94.0394 107.451H99.8914C102.128 107.451 103.941 109.264 103.941 111.5C103.941 113.737 102.128 115.55 99.8914 115.55H85.6479C83.802 115.55 82.2076 116.184 81.0328 117.17C79.858 118.156 79.1027 119.564 79.1027 121.043C79.1027 124.072 82.0397 126.537 85.6479 126.537H172.918C174.764 126.537 176.358 125.903 177.533 124.917C178.708 123.931 179.463 122.522 179.463 121.043C179.463 118.015 176.526 115.55 172.918 115.55H170.316C167.631 115.55 165.533 113.719 165.533 111.536C165.533 110.409 166.037 109.423 166.96 108.718C167.799 108.014 169.058 107.521 170.4 107.521H181.393C183.239 107.521 184.833 106.887 186.008 105.901C187.183 104.915 187.938 103.507 187.938 102.028C187.938 98.8586 185.001 96.3936 181.393 96.3936Z" fill="url(#paint0_linear_89_28969)"/>
<path d="M153.288 43.5337V116.795C153.288 122.14 148.96 126.537 143.55 126.537H140.372C138.41 126.537 136.787 125.454 135.435 124.034C133.271 121.666 132.121 118.554 132.121 115.307V106.851C132.121 103.469 129.348 100.695 125.967 100.695H86.8114V43.5337C86.8114 40.4896 89.3136 37.9866 92.3567 37.9866H147.743C150.854 37.9866 153.288 40.4896 153.288 43.5337Z" fill="#1F9FDB"/>
<path d="M137.631 131.413H76.032C69.1002 131.413 63.4548 125.84 63.4548 118.996V110.883C63.4548 107.356 66.3847 104.463 69.9577 104.463H122.482C126.055 104.463 128.985 107.356 128.985 110.883V119.702C128.985 123.018 130.199 126.333 132.486 128.803C133.844 130.284 135.559 131.413 137.631 131.413Z" fill="#1F9FDB"/>
<path d="M102.083 61.6002C104.28 61.6002 106.061 59.8191 106.061 57.6219C106.061 55.4247 104.28 53.6436 102.083 53.6436C99.8859 53.6436 98.1047 55.4247 98.1047 57.6219C98.1047 59.8191 99.8859 61.6002 102.083 61.6002Z" fill="white"/>
<path d="M102.083 74.4332C104.28 74.4332 106.061 72.6521 106.061 70.4549C106.061 68.2577 104.28 66.4766 102.083 66.4766C99.8859 66.4766 98.1047 68.2577 98.1047 70.4549C98.1047 72.6521 99.8859 74.4332 102.083 74.4332Z" fill="white"/>
<path d="M102.083 87.2665C104.28 87.2665 106.061 85.4853 106.061 83.2881C106.061 81.091 104.28 79.3098 102.083 79.3098C99.8859 79.3098 98.1047 81.091 98.1047 83.2881C98.1047 85.4853 99.8859 87.2665 102.083 87.2665Z" fill="white"/>
<path d="M138.53 53.6436H114.916C112.719 53.6436 110.938 55.4247 110.938 57.6219C110.938 59.8191 112.719 61.6002 114.916 61.6002H138.53C140.727 61.6002 142.508 59.8191 142.508 57.6219C142.508 55.4247 140.727 53.6436 138.53 53.6436Z" fill="white"/>
<path d="M138.401 66.4766H115.045C112.777 66.4766 110.938 68.3152 110.938 70.5832C110.938 72.8513 112.777 74.6899 115.045 74.6899H138.401C140.669 74.6899 142.508 72.8513 142.508 70.5832C142.508 68.3152 140.669 66.4766 138.401 66.4766Z" fill="white"/>
<path d="M138.53 79.3098H114.916C112.719 79.3098 110.938 81.091 110.938 83.2881C110.938 85.4853 112.719 87.2665 114.916 87.2665H138.53C140.727 87.2665 142.508 85.4853 142.508 83.2881C142.508 81.091 140.727 79.3098 138.53 79.3098Z" fill="white"/>
</g>
<defs>
<linearGradient id="paint0_linear_89_28969" x1="118.89" y1="180.356" x2="116.92" y2="-73.9001" gradientUnits="userSpaceOnUse">
<stop stop-color="white"/>
<stop offset="1" stop-color="#EEEEEE"/>
</linearGradient>
<clipPath id="clip0_89_28969">
<rect width="231" height="154" fill="white" transform="translate(0.314819)"/>
</clipPath>
</defs>
</svg>
