<svg width="18" height="18" viewBox="0 0 18 18" fill="none" xmlns="http://www.w3.org/2000/svg">
<g clip-path="url(#clip0_289_74887)">
<path d="M13.5951 0.277344H4.50734C2.29307 0.277344 0.498047 2.07236 0.498047 4.28663V13.3744C0.498047 15.5886 2.29307 17.3836 4.50734 17.3836H13.5951C15.8093 17.3836 17.6044 15.5886 17.6044 13.3744V4.28663C17.6044 2.07236 15.8093 0.277344 13.5951 0.277344Z" fill="url(#paint0_radial_289_74887)"/>
<path d="M13.5951 0.277344H4.50734C2.29307 0.277344 0.498047 2.07236 0.498047 4.28663V13.3744C0.498047 15.5886 2.29307 17.3836 4.50734 17.3836H13.5951C15.8093 17.3836 17.6044 15.5886 17.6044 13.3744V4.28663C17.6044 2.07236 15.8093 0.277344 13.5951 0.277344Z" fill="url(#paint1_radial_289_74887)"/>
<path d="M9.05189 2.14844C7.23715 2.14844 7.00936 2.15639 6.29664 2.1888C5.58526 2.22141 5.09967 2.334 4.67482 2.49925C4.23526 2.66991 3.86247 2.89824 3.49107 3.26977C3.11935 3.64123 2.89102 4.01403 2.71982 4.45338C2.5541 4.87836 2.44137 5.36416 2.40937 6.0752C2.37749 6.78799 2.36914 7.01585 2.36914 8.83065C2.36914 10.6455 2.37716 10.8725 2.4095 11.5852C2.44224 12.2966 2.55484 12.7822 2.71995 13.2071C2.89075 13.6466 3.11908 14.0194 3.49061 14.3908C3.86193 14.7625 4.23473 14.9914 4.67395 15.1621C5.09913 15.3273 5.58479 15.4399 6.29604 15.4725C7.00882 15.5049 7.23642 15.5129 9.05109 15.5129C10.866 15.5129 11.0931 15.5049 11.8058 15.4725C12.5172 15.4399 13.0033 15.3273 13.4285 15.1621C13.8679 14.9914 14.2401 14.7625 14.6114 14.3908C14.9831 14.0194 15.2114 13.6466 15.3826 13.2073C15.5469 12.7822 15.6597 12.2965 15.6931 11.5854C15.7251 10.8727 15.7334 10.6455 15.7334 8.83065C15.7334 7.01585 15.7251 6.78812 15.6931 6.07534C15.6597 5.36395 15.5469 4.87843 15.3826 4.45358C15.2114 4.01403 14.9831 3.64123 14.6114 3.26977C14.2397 2.89811 13.868 2.66978 13.4281 2.49932C13.0021 2.334 12.5163 2.22134 11.8049 2.1888C11.0921 2.15639 10.8652 2.14844 9.04982 2.14844H9.05189ZM8.45244 3.35263C8.63038 3.35236 8.82891 3.35263 9.05189 3.35263C10.8361 3.35263 11.0475 3.35904 11.7521 3.39105C12.4036 3.42085 12.7572 3.5297 12.9928 3.62118C13.3046 3.74226 13.5269 3.88707 13.7607 4.12101C13.9945 4.35488 14.1393 4.5776 14.2607 4.88945C14.3522 5.12467 14.4612 5.47829 14.4908 6.1298C14.5228 6.83423 14.5298 7.04578 14.5298 8.82912C14.5298 10.6124 14.5228 10.8241 14.4908 11.5284C14.461 12.1799 14.3522 12.5336 14.2607 12.7688C14.1396 13.0807 13.9945 13.3027 13.7607 13.5365C13.5268 13.7704 13.3047 13.9151 12.9928 14.0362C12.7575 14.1281 12.4036 14.2367 11.7521 14.2665C11.0476 14.2985 10.8361 14.3055 9.05189 14.3055C7.26762 14.3055 7.05613 14.2985 6.35177 14.2665C5.70026 14.2364 5.34664 14.1276 5.11089 14.0361C4.7991 13.915 4.57632 13.7702 4.34245 13.5364C4.10857 13.3025 3.96384 13.0803 3.84242 12.7683C3.75094 12.533 3.64196 12.1794 3.61229 11.5279C3.58028 10.8235 3.57387 10.6119 3.57387 8.82745C3.57387 7.04305 3.58028 6.83256 3.61229 6.12813C3.64209 5.47662 3.75094 5.123 3.84242 4.88745C3.96357 4.57559 4.10857 4.35288 4.34251 4.119C4.57639 3.88513 4.7991 3.74033 5.11096 3.61898C5.34651 3.5271 5.70026 3.41851 6.35177 3.38858C6.9682 3.36071 7.20708 3.35236 8.45244 3.35096V3.35263ZM12.6188 4.46213C12.1761 4.46213 11.817 4.82096 11.817 5.26372C11.817 5.70641 12.1761 6.06558 12.6188 6.06558C13.0615 6.06558 13.4207 5.70641 13.4207 5.26372C13.4207 4.82103 13.0615 4.46186 12.6188 4.46186V4.46213ZM9.05189 5.39904C7.15683 5.39904 5.62034 6.93553 5.62034 8.83065C5.62034 10.7258 7.15683 12.2615 9.05189 12.2615C10.947 12.2615 12.483 10.7258 12.483 8.83065C12.483 6.9356 10.9469 5.39904 9.05176 5.39904H9.05189ZM9.05189 6.60323C10.282 6.60323 11.2793 7.6004 11.2793 8.83065C11.2793 10.0608 10.282 11.0581 9.05189 11.0581C7.82171 11.0581 6.82453 10.0608 6.82453 8.83065C6.82453 7.6004 7.82171 6.60323 9.05189 6.60323Z" fill="white"/>
</g>
<defs>
<radialGradient id="paint0_radial_289_74887" cx="0" cy="0" r="1" gradientUnits="userSpaceOnUse" gradientTransform="translate(5.04191 18.7012) rotate(-90) scale(16.9536 15.7682)">
<stop stop-color="#FFDD55"/>
<stop offset="0.1" stop-color="#FFDD55"/>
<stop offset="0.5" stop-color="#FF543E"/>
<stop offset="1" stop-color="#C837AB"/>
</radialGradient>
<radialGradient id="paint1_radial_289_74887" cx="0" cy="0" r="1" gradientUnits="userSpaceOnUse" gradientTransform="translate(-2.36733 1.5096) rotate(78.681) scale(7.57836 31.2382)">
<stop stop-color="#3771C8"/>
<stop offset="0.128" stop-color="#3771C8"/>
<stop offset="1" stop-color="#6600FF" stop-opacity="0"/>
</radialGradient>
<clipPath id="clip0_289_74887">
<rect width="17.1063" height="17.1063" fill="white" transform="translate(0.5 0.285156)"/>
</clipPath>
</defs>
</svg>
