<svg width="18" height="18" viewBox="0 0 18 18" fill="none" xmlns="http://www.w3.org/2000/svg">
<g clip-path="url(#clip0_289_74858)">
<path d="M9.23284 17.3836C13.9566 17.3836 17.786 13.5543 17.786 8.8305C17.786 4.10672 13.9566 0.277344 9.23284 0.277344C4.50906 0.277344 0.679688 4.10672 0.679688 8.8305C0.679688 13.5543 4.50906 17.3836 9.23284 17.3836Z" fill="#1C98F7"/>
<path fill-rule="evenodd" clip-rule="evenodd" d="M9.38212 12.7442C9.75827 12.718 10.1312 12.6572 10.4962 12.5624C10.9466 12.6999 11.4227 12.731 11.8871 12.6533C11.9055 12.6503 11.9241 12.6489 11.9427 12.649C12.1084 12.649 12.326 12.7452 12.643 12.9484V12.6143C12.6431 12.5565 12.6585 12.4997 12.6877 12.4498C12.7169 12.4 12.7589 12.3587 12.8093 12.3304C12.9472 12.2524 13.0755 12.1626 13.1925 12.0637C13.6544 11.6724 13.9153 11.1506 13.9153 10.5979C13.9153 10.4124 13.8859 10.2322 13.8303 10.0601C13.9698 9.79975 14.0826 9.52605 14.1655 9.24219C14.4334 9.64366 14.5769 10.1152 14.5782 10.5979C14.5782 11.3489 14.2285 12.0492 13.6239 12.5613C13.523 12.6468 13.4168 12.7257 13.3059 12.7976V13.5786C13.3059 13.8475 12.9958 14.002 12.7772 13.8422C12.5704 13.6876 12.3564 13.5431 12.1357 13.4092C12.0725 13.3714 12.0068 13.338 11.939 13.3092C11.7572 13.3365 11.5712 13.3504 11.3836 13.3504C10.6287 13.3504 9.93112 13.1243 9.38212 12.7442ZM5.391 11.1822C4.43733 10.3733 3.88672 9.27159 3.88672 8.09072C3.88672 5.6782 6.16293 3.75 8.94217 3.75C11.7219 3.75 13.9981 5.6782 13.9981 8.09072C13.9981 10.5038 11.7214 12.432 8.94217 12.432C8.62998 12.432 8.32099 12.4079 8.01843 12.3598C7.88746 12.3908 7.36411 12.7019 6.60983 13.2526C6.33666 13.4525 5.9491 13.2595 5.9491 12.9233V11.5911C5.75377 11.468 5.56728 11.3313 5.391 11.1822ZM8.0366 11.5382C8.05959 11.5382 8.08311 11.5398 8.1061 11.5435C8.37873 11.5895 8.65884 11.613 8.94217 11.613C11.29 11.613 13.169 10.0211 13.169 8.09072C13.169 6.16092 11.29 4.56896 8.94217 4.56896C6.5954 4.56896 4.71531 6.16092 4.71531 8.09072C4.71531 9.02409 5.15419 9.90292 5.93039 10.5604C6.12551 10.7251 6.33987 10.8748 6.56974 11.0052C6.69857 11.0779 6.77822 11.2137 6.77822 11.3602V12.1283C7.3748 11.728 7.76718 11.5382 8.0366 11.5382ZM6.78731 8.91022C6.42112 8.91022 6.12444 8.61621 6.12444 8.25484C6.12444 7.89293 6.42112 7.59945 6.78731 7.59945C7.15349 7.59945 7.45018 7.89293 7.45018 8.25484C7.45018 8.61674 7.15349 8.91022 6.78731 8.91022ZM8.94217 8.91022C8.57598 8.91022 8.2793 8.61621 8.2793 8.25484C8.2793 7.89293 8.57598 7.59945 8.94217 7.59945C9.30835 7.59945 9.60504 7.89293 9.60504 8.25484C9.60504 8.61674 9.30835 8.91022 8.94217 8.91022ZM11.097 8.91022C10.7308 8.91022 10.4342 8.61621 10.4342 8.25484C10.4342 7.89293 10.7308 7.59945 11.097 7.59945C11.4632 7.59945 11.7599 7.89293 11.7599 8.25484C11.7599 8.61674 11.4632 8.91022 11.097 8.91022Z" fill="white"/>
</g>
<defs>
<clipPath id="clip0_289_74858">
<rect width="17.1063" height="17.1063" fill="white" transform="translate(0.679688 0.285156)"/>
</clipPath>
</defs>
</svg>
