<svg width="23" height="22" viewBox="0 0 23 22" fill="none" xmlns="http://www.w3.org/2000/svg">
<path d="M19.4964 4.14844H3.45923C3.28201 4.14844 3.11205 4.21884 2.98673 4.34415C2.86142 4.46947 2.79102 4.63943 2.79102 4.81665V16.1763C2.79102 16.5308 2.93182 16.8707 3.18245 17.1213C3.43308 17.3719 3.773 17.5127 4.12745 17.5127H18.8282C19.1826 17.5127 19.5225 17.3719 19.7732 17.1213C20.0238 16.8707 20.1646 16.5308 20.1646 16.1763V4.81665C20.1646 4.63943 20.0942 4.46947 19.9689 4.34415C19.8436 4.21884 19.6736 4.14844 19.4964 4.14844ZM9.03047 10.8306L4.12745 15.3243V6.33684L9.03047 10.8306ZM10.0161 11.741L11.0268 12.6598C11.1499 12.7725 11.3109 12.835 11.4778 12.835C11.6448 12.835 11.8057 12.7725 11.9289 12.6598L12.9395 11.741L17.7757 16.1763H5.17988L10.0161 11.741ZM13.9251 10.8306L18.8282 6.33684V15.3243L13.9251 10.8306Z" fill="#1F9FDB"/>
</svg>
