<svg width="18" height="18" viewBox="0 0 18 18" fill="none" xmlns="http://www.w3.org/2000/svg">
<g clip-path="url(#clip0_289_74872)">
<path d="M13.7767 0.496094H4.68898C2.47471 0.496094 0.679688 2.29111 0.679688 4.50538V13.5931C0.679688 15.8074 2.47471 17.6024 4.68898 17.6024H13.7767C15.991 17.6024 17.786 15.8074 17.786 13.5931V4.50538C17.786 2.29111 15.991 0.496094 13.7767 0.496094Z" fill="white"/>
<path d="M13.7767 0.496094H4.68898C2.47471 0.496094 0.679688 2.29111 0.679688 4.50538V13.5931C0.679688 15.8074 2.47471 17.6024 4.68898 17.6024H13.7767C15.991 17.6024 17.786 15.8074 17.786 13.5931V4.50538C17.786 2.29111 15.991 0.496094 13.7767 0.496094Z" fill="#1D9BF0"/>
<path d="M14.0152 6.60491C14.0226 6.71096 14.0226 6.817 14.0226 6.92405C14.0226 10.1847 11.5403 13.9453 7.00131 13.9453V13.9433C5.66042 13.9453 4.3473 13.5612 3.21875 12.8371C3.41374 12.8605 3.60966 12.8722 3.80611 12.8727C4.91746 12.8736 5.99684 12.5008 6.87081 11.8143C6.35588 11.8046 5.85687 11.6342 5.44353 11.3269C5.0302 11.0197 4.7232 10.5909 4.56547 10.1007C4.93518 10.172 5.31632 10.1574 5.67952 10.0582C4.52832 9.82557 3.70007 8.81409 3.70007 7.63937V7.6081C4.04325 7.79925 4.42734 7.90517 4.81999 7.91695C3.73575 7.19227 3.40151 5.74979 4.05622 4.62198C4.67575 5.38435 5.44871 6.00786 6.32491 6.45202C7.20111 6.89618 8.16095 7.15106 9.14207 7.20009C9.04425 6.77901 9.0587 6.33962 9.18397 5.92587C9.30925 5.51213 9.54096 5.13852 9.85593 4.84243C10.8498 3.90813 12.413 3.95604 13.3473 4.94941C13.8999 4.8403 14.4298 4.63771 14.9143 4.35035C14.7301 4.92172 14.3446 5.40671 13.8295 5.71511C14.3187 5.65748 14.7964 5.52654 15.2466 5.32668C14.9155 5.82263 14.4985 6.25544 14.0152 6.60491Z" fill="white"/>
</g>
<defs>
<clipPath id="clip0_289_74872">
<rect width="17.1063" height="17.1063" fill="white" transform="translate(0.679688 0.5)"/>
</clipPath>
</defs>
</svg>
