<svg width="23" height="22" viewBox="0 0 23 22" fill="none" xmlns="http://www.w3.org/2000/svg">
<g clip-path="url(#clip0_289_74904)">
<path d="M1.24228 11.0617C1.24178 12.8583 1.71488 14.6125 2.61446 16.1587L1.15625 21.4416L6.60487 20.024C8.11189 20.8381 9.8004 21.2646 11.5163 21.2647H11.5208C17.1851 21.2647 21.7961 16.6912 21.7985 11.0697C21.7996 8.34573 20.7314 5.78426 18.7908 3.85714C16.8504 1.9302 14.2699 0.868431 11.5203 0.867188C5.85531 0.867188 1.2447 5.44047 1.24237 11.0617" fill="url(#paint0_linear_289_74904)"/>
<path d="M8.86215 6.64582C8.66286 6.20631 8.45312 6.19744 8.2636 6.18974C8.1084 6.1831 7.93099 6.1836 7.75375 6.1836C7.57634 6.1836 7.28809 6.24982 7.04444 6.51379C6.80054 6.77801 6.11328 7.41652 6.11328 8.71515C6.11328 10.0139 7.06657 11.2689 7.19946 11.4452C7.33252 11.6212 9.03981 14.3714 11.7437 15.4295C13.991 16.3087 14.4483 16.1339 14.936 16.0898C15.4238 16.0458 16.51 15.4514 16.7316 14.835C16.9533 14.2188 16.9533 13.6905 16.8868 13.5801C16.8203 13.4701 16.6429 13.4041 16.3769 13.2721C16.1108 13.1401 14.8029 12.5015 14.5591 12.4134C14.3152 12.3254 14.1379 12.2815 13.9605 12.5458C13.7831 12.8096 13.2736 13.4041 13.1183 13.5801C12.9632 13.7565 12.808 13.7785 12.542 13.6465C12.2758 13.514 11.4191 13.2356 10.4026 12.3365C9.6118 11.6368 9.0779 10.7728 8.92271 10.5085C8.76751 10.2446 8.90609 10.1016 9.03948 9.97003C9.15901 9.85176 9.30559 9.6618 9.43874 9.50773C9.57138 9.35357 9.61565 9.24359 9.70435 9.06756C9.79314 8.89135 9.7487 8.7372 9.6823 8.60517C9.61565 8.47315 9.0987 7.16771 8.86215 6.64582Z" fill="white"/>
</g>
<defs>
<linearGradient id="paint0_linear_289_74904" x1="1033.27" y1="2058.31" x2="1033.27" y2="0.867188" gradientUnits="userSpaceOnUse">
<stop stop-color="#1FAF38"/>
<stop offset="1" stop-color="#60D669"/>
</linearGradient>
<clipPath id="clip0_289_74904">
<rect width="21.3829" height="21.3829" fill="white" transform="translate(0.787109 0.5)"/>
</clipPath>
</defs>
</svg>
