<svg width="117" height="78" viewBox="0 0 117 78" fill="none" xmlns="http://www.w3.org/2000/svg">
<g clip-path="url(#clip0_72_59364)">
<path d="M79.2971 50.6766L39.7738 64.3102C37.0387 64.4779 34.3334 64.1815 31.9164 62.9812C30.3758 62.2158 28.9876 61.0603 28.2415 59.5297C27.4963 57.9981 27.4891 56.0643 28.4638 54.6892L28.464 54.6889C28.5757 54.5304 28.6999 54.3811 28.8357 54.2426C31.4555 51.5798 31.5442 47.3355 29.0525 44.5549L29.0514 44.5538L29.0247 44.5242L29.0244 44.5239L28.9966 44.4931C28.6575 44.1179 28.3159 43.7449 27.9717 43.3742C27.1719 42.509 26.3703 41.6416 25.6445 40.7288C24.6084 39.4256 23.7363 38.0407 23.2626 36.4625C22.3023 33.2628 23.2624 29.5805 25.6038 27.1896C27.9452 24.7989 31.5557 23.7548 34.8328 24.4389H34.833C36.2883 24.7425 37.6407 25.3473 38.9589 26.0644C39.6179 26.4228 40.2672 26.8088 40.9163 27.1986L41.1832 27.3591C41.743 27.6958 42.3036 28.0328 42.8689 28.354C45.4871 29.8412 48.5923 31.0583 51.5387 30.2368C54.05 29.5362 55.9237 27.4954 57.5325 25.4987C57.6681 25.3304 57.8035 25.1612 57.9389 24.9919C59.4176 23.1441 60.9121 21.2762 62.9822 20.2242C64.1049 19.6543 65.4611 19.4217 66.7055 19.5955C67.9494 19.7694 69.0715 20.3471 69.7454 21.387C70.5933 22.6949 70.5357 24.3047 70.4592 25.9712L70.4553 26.0566C70.3805 27.6789 70.3034 29.3502 71.131 30.7394C71.6125 31.5475 72.3254 32.1326 73.1027 32.6368C73.4915 32.8888 73.8988 33.1222 74.3028 33.3529L74.3369 33.3723C74.7303 33.597 75.1199 33.8194 75.4914 34.0572C80.1081 37.012 82.2363 43.3381 80.3447 48.483C80.0628 49.2493 79.7073 49.9782 79.2971 50.6766Z" fill="white" stroke="#E1E4E5" stroke-width="0.237272"/>
<path d="M79.5365 42.0771L41.866 55.9729C39.2445 56.1894 36.643 55.9597 34.3002 54.8575C32.8063 54.1545 31.4518 53.0747 30.7054 51.6224L79.5365 42.0771ZM79.5365 42.0771C79.9153 41.3996 80.2408 40.694 80.4953 39.9542C82.2054 34.9795 80.0345 28.9531 75.5451 26.2121C75.1837 25.9915 74.805 25.7858 74.4227 25.5781L74.3897 25.5602C73.9971 25.347 73.601 25.1311 73.2222 24.8967C72.465 24.4281 71.767 23.8799 71.287 23.1118C70.4624 21.7921 70.5024 20.1831 70.5411 18.6246L70.5432 18.5411C70.5827 16.9387 70.6048 15.3951 69.766 14.1595C69.0998 13.1776 68.0134 12.6467 66.8174 12.5055C65.621 12.3641 64.3255 12.6146 63.2607 13.1839C61.2964 14.2354 59.9004 16.0577 58.5181 17.8625C58.3915 18.0278 58.265 18.1929 58.1382 18.3573C56.634 20.3072 54.8747 22.3078 52.4741 23.0327C49.6574 23.8829 46.6476 22.7755 44.1028 21.4005C43.5533 21.1037 43.0081 20.7913 42.4637 20.4795L42.2041 20.3308C41.5728 19.9696 40.9416 19.6124 40.3016 19.2816C39.0215 18.6202 37.7116 18.0675 36.3092 17.8058C33.1514 17.2164 29.7092 18.2915 27.512 20.6324C25.3147 22.9734 24.4688 26.5252 25.4549 29.5748C25.9413 31.0788 26.8061 32.39 27.8273 33.6197C28.5426 34.4811 29.3297 35.2973 30.1151 36.1117C30.4626 36.4703 30.8075 36.8314 31.1499 37.1948L31.15 37.1949L31.1764 37.2229L31.1775 37.2239C33.6303 39.847 33.6317 43.9305 31.1666 46.5447C31.0395 46.6801 30.9235 46.8256 30.8198 46.9796L30.8197 46.9799C29.9141 48.3165 29.9599 50.1694 30.7054 51.6224L79.5365 42.0771Z" fill="white"/>
<path d="M79.5365 42.0771L41.866 55.9729C39.2445 56.1894 36.643 55.9597 34.3002 54.8575C32.8063 54.1545 31.4518 53.0747 30.7054 51.6224M79.5365 42.0771L30.7054 51.6224M79.5365 42.0771C79.9153 41.3996 80.2408 40.694 80.4953 39.9542C82.2054 34.9795 80.0345 28.9531 75.5451 26.2121C75.1837 25.9915 74.805 25.7858 74.4227 25.5781L74.3897 25.5602C73.9971 25.347 73.601 25.1311 73.2222 24.8967C72.465 24.4281 71.767 23.8799 71.287 23.1118C70.4624 21.7921 70.5024 20.1831 70.5411 18.6246L70.5432 18.5411C70.5827 16.9387 70.6048 15.3951 69.766 14.1595C69.0998 13.1776 68.0134 12.6467 66.8174 12.5055C65.621 12.3641 64.3255 12.6146 63.2607 13.1839C61.2964 14.2354 59.9004 16.0577 58.5181 17.8625C58.3915 18.0278 58.265 18.1929 58.1382 18.3573C56.634 20.3072 54.8747 22.3078 52.4741 23.0327C49.6574 23.8829 46.6476 22.7755 44.1028 21.4005C43.5533 21.1037 43.0081 20.7913 42.4637 20.4795L42.2041 20.3308C41.5728 19.9696 40.9416 19.6124 40.3016 19.2816C39.0215 18.6202 37.7116 18.0675 36.3092 17.8058C33.1514 17.2164 29.7092 18.2915 27.512 20.6324C25.3147 22.9734 24.4688 26.5252 25.4549 29.5748C25.9413 31.0788 26.8061 32.39 27.8273 33.6197C28.5426 34.4811 29.3297 35.2973 30.1151 36.1117C30.4626 36.4703 30.8075 36.8314 31.1499 37.1948L31.15 37.1949L31.1764 37.2229L31.1775 37.2239C33.6303 39.847 33.6317 43.9305 31.1666 46.5447C31.0395 46.6801 30.9235 46.8256 30.8198 46.9796L30.8197 46.9799C29.9141 48.3165 29.9599 50.1694 30.7054 51.6224" stroke="#E1E4E5" stroke-width="0.247757"/>
<path d="M39.059 23.2041L78.9583 24.3585C81.4559 25.1309 83.7689 26.3071 85.5199 28.1916C86.6367 29.3935 87.4848 30.8908 87.6344 32.5055C87.7829 34.1204 87.1386 35.8441 85.8098 36.7396L85.8095 36.7399C85.657 36.8432 85.4965 36.9342 85.3294 37.0118C82.0827 38.5103 80.5678 42.281 81.8587 45.6137L81.8594 45.6151L81.8732 45.6504L81.8735 45.6508C82.0545 46.1131 82.2388 46.5742 82.4262 47.0339C82.8487 48.0765 83.2719 49.1208 83.6121 50.1805C84.0977 51.6933 84.4089 53.2225 84.2999 54.7893C84.0786 57.9656 81.9824 60.9263 79.0891 62.2698C76.1961 63.6132 72.6243 63.3284 69.932 61.6144C68.736 60.8535 67.7331 59.8582 66.798 58.7735C66.3304 58.2311 65.8808 57.6675 65.4325 57.1003L65.248 56.8668C64.8616 56.3772 64.4745 55.8869 64.0777 55.4092C62.24 53.1968 59.8731 51.0571 56.9569 50.7965C54.4714 50.5745 52.1049 51.7682 49.9942 53.0091C49.8163 53.1137 49.6385 53.219 49.4605 53.3244C47.5156 54.4767 45.5532 55.6393 43.3528 55.8803C42.1607 56.0104 40.874 55.7612 39.8238 55.1876C38.7743 54.6144 37.9705 53.7231 37.7206 52.5723C37.4057 51.1238 37.9976 49.7101 38.6286 48.2462L38.6618 48.1691C39.2753 46.7467 39.9097 45.2757 39.6381 43.7507C39.48 42.8627 39.039 42.0972 38.514 41.3837C38.2515 41.0269 37.9661 40.6808 37.683 40.3384L37.6591 40.3095C37.3834 39.9761 37.1106 39.6461 36.8592 39.3088C33.7365 35.1177 33.9691 28.7568 37.3898 24.8046C37.8982 24.2174 38.4592 23.688 39.059 23.2041Z" fill="white"/>
<path d="M56.9569 50.7965C59.8731 51.0571 62.24 53.1968 64.0777 55.4092C64.4745 55.8869 64.8616 56.3772 65.248 56.8668L65.4325 57.1003C65.8808 57.6675 66.3304 58.2311 66.798 58.7735C67.7331 59.8582 68.736 60.8535 69.932 61.6144C72.6243 63.3284 76.1961 63.6132 79.0891 62.2698C81.9824 60.9263 84.0786 57.9656 84.2999 54.7893C84.4089 53.2225 84.0977 51.6933 83.6121 50.1805C83.2719 49.1208 82.8487 48.0765 82.4262 47.0339C82.2388 46.5742 82.0545 46.1131 81.8735 45.6508L81.8732 45.6504L81.8594 45.6151L81.8587 45.6137C80.5678 42.281 82.0827 38.5103 85.3294 37.0118C85.4965 36.9342 85.657 36.8432 85.8095 36.7399L85.8098 36.7396C87.1386 35.8441 87.7829 34.1204 87.6344 32.5055C87.4848 30.8908 86.6367 29.3935 85.5199 28.1916C83.7689 26.3071 81.4559 25.1309 78.9583 24.3585L39.059 23.2041C38.4592 23.688 37.8982 24.2174 37.3898 24.8046C33.9691 28.7568 33.7365 35.1177 36.8592 39.3088C37.1106 39.6461 37.3834 39.9761 37.6591 40.3095L37.683 40.3384C37.9661 40.6808 38.2515 41.0269 38.514 41.3837C39.039 42.0972 39.48 42.8627 39.6381 43.7507C39.9097 45.2757 39.2753 46.7467 38.6618 48.1691L38.6286 48.2462C37.9976 49.7101 37.4057 51.1239 37.7206 52.5723C37.9705 53.7231 38.7743 54.6144 39.8238 55.1876C40.874 55.7612 42.1607 56.0104 43.3528 55.8803C45.5532 55.6393 47.5156 54.4767 49.4605 53.3244C49.6385 53.219 49.8163 53.1137 49.9942 53.0091C52.1049 51.7682 54.4714 50.5745 56.9569 50.7965ZM56.9569 50.7965L56.9453 50.9254" stroke="#E1E4E5" stroke-width="0.258889"/>
<path d="M77.8356 11.9941H39.7722C38.3424 11.9941 37.1833 13.1532 37.1833 14.583V64.929C37.1833 66.3587 38.3424 67.5179 39.7722 67.5179H77.8356C79.2655 67.5179 80.4245 66.3587 80.4245 64.929V14.583C80.4245 13.1532 79.2655 11.9941 77.8356 11.9941Z" fill="#1F9FDB"/>
<path d="M74.1344 14.8516H43.4742C42.0444 14.8516 40.8853 16.0106 40.8853 17.4405V45.9134C40.8853 47.3431 42.0444 48.5023 43.4742 48.5023H74.1344C75.5643 48.5023 76.7233 47.3431 76.7233 45.9134V17.4405C76.7233 16.0106 75.5643 14.8516 74.1344 14.8516ZM46.9422 56.4102H42.0628C41.3194 56.4102 40.7168 57.0129 40.7168 57.7563C40.7168 58.4997 41.3194 59.1023 42.0628 59.1023H46.9422C47.6856 59.1023 48.2881 58.4997 48.2881 57.7563C48.2881 57.0129 47.6856 56.4102 46.9422 56.4102ZM75.3771 56.4102H50.9803C50.2369 56.4102 49.6342 57.0129 49.6342 57.7563C49.6342 58.4997 50.2369 59.1023 50.9803 59.1023H75.3771C76.1205 59.1023 76.7232 58.4997 76.7232 57.7563C76.7232 57.0129 76.1205 56.4102 75.3771 56.4102ZM75.4614 51.3627H41.9787C41.2818 51.3627 40.7169 51.9277 40.7169 52.6246C40.7169 52.9593 40.8499 53.2802 41.0865 53.5169C41.3231 53.7535 41.6441 53.8864 41.9787 53.8864H75.4614C75.796 53.8864 76.117 53.7535 76.3536 53.5169C76.5902 53.2802 76.7232 52.9593 76.7232 52.6246C76.7232 51.9277 76.1583 51.3627 75.4614 51.3627Z" fill="white"/>
<path fill-rule="evenodd" clip-rule="evenodd" d="M67.1817 38.5005V39.7011C67.1817 40.3638 66.6474 40.9017 65.989 40.9017H51.6761C51.0177 40.9017 50.4834 40.3638 50.4834 39.7011V38.4812C50.4834 34.8482 54.6079 32.4878 58.8326 32.4878C63.0572 32.4878 67.1817 34.8493 67.1817 38.4812M61.6968 23.7716C63.3145 25.4399 63.3145 28.1445 61.6968 29.8128C60.0792 31.4809 57.4564 31.4809 55.8389 29.8128C54.2212 28.1445 54.2212 25.4399 55.8389 23.7716C57.4564 22.1035 60.0792 22.1035 61.6968 23.7716Z" fill="#1F9FDB"/>
<path fill-rule="evenodd" clip-rule="evenodd" d="M21.8953 12.7637H22.3335C22.4393 12.7637 22.5246 12.8499 22.5246 12.955V13.3931C22.5246 13.4991 22.4384 13.5843 22.3335 13.5843H21.8953C21.8446 13.5841 21.7961 13.5639 21.7603 13.5281C21.7245 13.4923 21.7043 13.4437 21.7041 13.3931V12.955C21.704 12.9299 21.7089 12.905 21.7185 12.8818C21.7281 12.8585 21.7422 12.8374 21.7599 12.8196C21.7777 12.8019 21.7988 12.7878 21.822 12.7782C21.8453 12.7686 21.8702 12.7637 21.8953 12.7637ZM23.4143 12.7637H23.8524C23.9575 12.7637 24.0437 12.8499 24.0437 12.955V13.3931C24.0437 13.4991 23.9575 13.5843 23.8524 13.5843H23.4143C23.3637 13.5841 23.3151 13.5639 23.2793 13.5281C23.2435 13.4923 23.2233 13.4437 23.2231 13.3931V12.955C23.2231 12.8499 23.3092 12.7637 23.4143 12.7637ZM24.9341 12.7637H25.3723C25.4773 12.7637 25.5635 12.8499 25.5635 12.955V13.3931C25.5635 13.4991 25.4773 13.5843 25.3723 13.5843H24.9341C24.8835 13.5841 24.8349 13.5639 24.7991 13.5281C24.7633 13.4923 24.7431 13.4437 24.7429 13.3931V12.955C24.7429 12.9299 24.7478 12.905 24.7574 12.8818C24.7669 12.8585 24.781 12.8374 24.7988 12.8196C24.8165 12.8019 24.8376 12.7878 24.8609 12.7782C24.8841 12.7686 24.909 12.7637 24.9341 12.7637ZM26.4533 12.7637H26.8915C26.9964 12.7637 27.0826 12.8499 27.0826 12.955V13.3931C27.0826 13.4991 26.9964 13.5843 26.8915 13.5843H26.4533C26.4025 13.5843 26.3538 13.5642 26.3178 13.5283C26.2818 13.4925 26.2614 13.4439 26.2612 13.3931V12.955C26.2617 12.9043 26.2822 12.8559 26.3181 12.8201C26.354 12.7843 26.4026 12.7641 26.4533 12.7637ZM27.9723 12.7637H28.4104C28.5164 12.7637 28.6025 12.8499 28.6025 12.955V13.3931C28.6025 13.4991 28.5164 13.5843 28.4104 13.5843H27.9723C27.9217 13.5841 27.8731 13.5639 27.8373 13.5281C27.8014 13.4923 27.7812 13.4437 27.781 13.3931V12.955C27.781 12.8499 27.8672 12.7637 27.9723 12.7637ZM23.47 14.4201H23.908C24.0131 14.4201 24.0993 14.5063 24.0993 14.6114V15.0504C24.0993 15.1555 24.0131 15.2415 23.908 15.2415H23.47C23.4193 15.2415 23.3707 15.2214 23.3348 15.1855C23.299 15.1497 23.2788 15.101 23.2788 15.0504V14.6123C23.2786 14.5871 23.2835 14.5621 23.293 14.5388C23.3026 14.5155 23.3166 14.4943 23.3344 14.4764C23.3522 14.4585 23.3733 14.4444 23.3966 14.4347C23.4198 14.425 23.4448 14.4201 23.47 14.4201ZM24.989 14.4201H25.4272C25.5322 14.4201 25.6184 14.5063 25.6184 14.6114V15.0504C25.6184 15.1555 25.5322 15.2415 25.4272 15.2415H24.989C24.9384 15.2414 24.8898 15.2212 24.854 15.1854C24.8182 15.1495 24.798 15.101 24.7978 15.0504V14.6123C24.7977 14.5871 24.8025 14.5621 24.812 14.5388C24.8216 14.5155 24.8356 14.4943 24.8534 14.4764C24.8712 14.4585 24.8923 14.4444 24.9156 14.4347C24.9389 14.425 24.9638 14.4201 24.989 14.4201ZM26.5082 14.4201H26.9462C27.0521 14.4201 27.1383 14.5063 27.1383 14.6114V15.0504C27.1383 15.1555 27.0521 15.2415 26.9462 15.2415H26.5082C26.4575 15.2414 26.409 15.2212 26.3731 15.1854C26.3373 15.1495 26.3171 15.101 26.3169 15.0504V14.6123C26.3169 14.5063 26.4031 14.4201 26.5082 14.4201ZM24.9341 10.9844H25.3723C25.4773 10.9844 25.5635 11.0706 25.5635 11.1757V11.6137C25.5635 11.7197 25.4773 11.8049 25.3723 11.8049H24.9341C24.8835 11.8047 24.835 11.7845 24.7992 11.7487C24.7634 11.7129 24.7431 11.6644 24.7429 11.6137V11.1757C24.7429 11.1506 24.7478 11.1257 24.7574 11.1024C24.7669 11.0792 24.781 11.0581 24.7988 11.0403C24.8165 11.0225 24.8376 11.0084 24.8609 10.9988C24.8841 10.9892 24.909 10.9843 24.9341 10.9844ZM26.4533 10.9844H26.8915C26.9964 10.9844 27.0826 11.0706 27.0826 11.1757V11.6137C27.0826 11.7197 26.9964 11.8049 26.8915 11.8049H26.4533C26.4025 11.8049 26.3538 11.7848 26.3178 11.749C26.2818 11.7131 26.2614 11.6645 26.2612 11.6137V11.1757C26.2617 11.125 26.2822 11.0765 26.3181 11.0407C26.354 11.0049 26.4026 10.9847 26.4533 10.9844ZM96.4698 32.664H96.1032C96.0145 32.664 95.9431 32.7361 95.9431 32.824V33.1907C95.9431 33.2794 96.0153 33.3507 96.1032 33.3507H96.4698C96.5122 33.3506 96.5528 33.3337 96.5828 33.3037C96.6129 33.2737 96.6298 33.2331 96.6299 33.1907V32.824C96.6299 32.8029 96.6258 32.7821 96.6178 32.7627C96.6097 32.7432 96.598 32.7256 96.5831 32.7107C96.5682 32.6959 96.5505 32.6841 96.5311 32.6761C96.5117 32.668 96.4908 32.6639 96.4698 32.664ZM95.1984 32.664H94.8317C94.7893 32.6641 94.7487 32.681 94.7187 32.711C94.6887 32.741 94.6718 32.7816 94.6717 32.824V33.1907C94.6717 33.2794 94.7438 33.3507 94.8317 33.3507H95.1984C95.2408 33.3506 95.2814 33.3337 95.3114 33.3037C95.3413 33.2737 95.3582 33.2331 95.3584 33.1907V32.824C95.3582 32.7816 95.3413 32.741 95.3114 32.711C95.2814 32.681 95.2408 32.6641 95.1984 32.664ZM93.9263 32.664H93.5596C93.5172 32.6641 93.4766 32.681 93.4466 32.711C93.4167 32.741 93.3998 32.7816 93.3996 32.824V33.1907C93.3996 33.2794 93.4717 33.3507 93.5596 33.3507H93.9263C93.9687 33.3506 94.0093 33.3337 94.0393 33.3037C94.0693 33.2737 94.0862 33.2331 94.0863 33.1907V32.824C94.0864 32.803 94.0823 32.7821 94.0743 32.7627C94.0662 32.7433 94.0544 32.7256 94.0396 32.7107C94.0247 32.6959 94.0071 32.6841 93.9876 32.6761C93.9682 32.668 93.9474 32.6639 93.9263 32.664ZM92.6552 32.664H92.2885C92.2461 32.6641 92.2055 32.681 92.1755 32.711C92.1455 32.741 92.1286 32.7816 92.1285 32.824V33.1907C92.1285 33.2794 92.2006 33.3507 92.2885 33.3507H92.6552C92.7439 33.3507 92.816 33.2786 92.816 33.1907V32.824C92.8155 32.7816 92.7984 32.741 92.7683 32.7111C92.7382 32.6812 92.6976 32.6643 92.6552 32.664ZM91.3838 32.664H91.0172C90.9285 32.664 90.8563 32.7361 90.8563 32.824V33.1907C90.8563 33.2794 90.9285 33.3507 91.0172 33.3507H91.3838C91.4717 33.3507 91.5439 33.2786 91.5439 33.1907V32.824C91.5439 32.7361 91.4717 32.664 91.3838 32.664ZM95.1522 34.0503H94.7855C94.7431 34.0505 94.7025 34.0674 94.6725 34.0973C94.6425 34.1273 94.6256 34.1679 94.6255 34.2103V34.5778C94.6256 34.6202 94.6425 34.6608 94.6725 34.6908C94.7025 34.7208 94.7431 34.7377 94.7855 34.7378H95.1522C95.2408 34.7378 95.3122 34.6657 95.3122 34.5778V34.2111C95.3123 34.19 95.3083 34.1691 95.3003 34.1496C95.2923 34.1301 95.2805 34.1123 95.2657 34.0974C95.2508 34.0824 95.2331 34.0706 95.2136 34.0625C95.1941 34.0544 95.1733 34.0503 95.1522 34.0503ZM93.8805 34.0503H93.5139C93.426 34.0503 93.3538 34.1224 93.3538 34.2103V34.5778C93.3538 34.6657 93.426 34.7378 93.5139 34.7378H93.8805C93.9229 34.7377 93.9636 34.7208 93.9936 34.6908C94.0236 34.6609 94.0405 34.6202 94.0406 34.5778V34.2111C94.0407 34.19 94.0367 34.1691 94.0287 34.1496C94.0207 34.1301 94.0089 34.1123 93.994 34.0974C93.9792 34.0824 93.9615 34.0706 93.942 34.0625C93.9225 34.0544 93.9016 34.0503 93.8805 34.0503ZM92.6092 34.0503H92.2425C92.154 34.0503 92.0817 34.1224 92.0817 34.2103V34.5778C92.0817 34.6657 92.154 34.7378 92.2425 34.7378H92.6092C92.6516 34.7377 92.6922 34.7208 92.7222 34.6908C92.7522 34.6608 92.7691 34.6202 92.7692 34.5778V34.2111C92.7692 34.1224 92.6971 34.0503 92.6092 34.0503ZM93.9263 31.1749H93.5596C93.5172 31.175 93.4766 31.1919 93.4466 31.2219C93.4167 31.2518 93.3998 31.2925 93.3996 31.3349V31.7016C93.3996 31.7902 93.4717 31.8616 93.5596 31.8616H93.9263C93.9687 31.8614 94.0093 31.8445 94.0393 31.8145C94.0693 31.7846 94.0862 31.744 94.0863 31.7016V31.3349C94.0864 31.3138 94.0823 31.293 94.0743 31.2736C94.0662 31.2541 94.0544 31.2365 94.0396 31.2216C94.0247 31.2067 94.0071 31.195 93.9876 31.1869C93.9682 31.1789 93.9474 31.1748 93.9263 31.1749ZM92.6552 31.1749H92.2885C92.2461 31.175 92.2055 31.1919 92.1755 31.2219C92.1455 31.2518 92.1286 31.2925 92.1285 31.3349V31.7016C92.1285 31.7902 92.2006 31.8616 92.2885 31.8616H92.6552C92.7439 31.8616 92.816 31.7895 92.816 31.7016V31.3349C92.8155 31.2924 92.7984 31.2519 92.7683 31.222C92.7382 31.192 92.6976 31.1751 92.6552 31.1749ZM84.3943 11.6915V12.2564H84.9844C85.2308 12.2564 85.4331 12.4502 85.4331 12.6859C85.4331 12.9216 85.2308 13.1154 84.9844 13.1154H84.3943V13.6803C84.3943 13.916 84.192 14.1098 83.9456 14.1098C83.6994 14.1098 83.497 13.916 83.497 13.6803V13.1177H82.9045C82.6582 13.1177 82.4559 12.924 82.4559 12.6882C82.4559 12.4525 82.6582 12.2588 82.9045 12.2588H83.4947V11.6915C83.4947 11.4558 83.697 11.262 83.9456 11.262C84.192 11.262 84.3943 11.4558 84.3943 11.6915ZM79.5416 7.59552V8.3916H80.3883C80.7416 8.3916 81.032 8.6646 81.032 8.99675C81.032 9.32891 80.7416 9.60191 80.3883 9.60191H79.5416V10.398C79.5416 10.7301 79.2512 11.0031 78.898 11.0031C78.5446 11.0031 78.2542 10.7301 78.2542 10.398V9.60514H77.404C77.0507 9.60514 76.7603 9.33201 76.7603 8.99986C76.7603 8.66771 77.0507 8.39471 77.404 8.39471H78.2507V7.59539C78.2507 7.26323 78.5411 6.99023 78.898 6.99023C79.2512 6.99023 79.5416 7.26336 79.5416 7.59552Z" fill="#E1E4E5"/>
<path d="M86.0801 19.4155H82.5851M87.8923 16.9561H82.5851M85.6917 21.8749H82.5851" stroke="#E1E4E5" stroke-width="0.589878" stroke-linecap="round" stroke-linejoin="round"/>
<path d="M26.2623 46.3416H26.2905C26.4576 48.6501 28.2184 48.6855 28.2184 48.6855C28.2184 48.6855 26.2767 48.7226 26.2767 51.3899C26.2767 48.7226 24.3351 48.6855 24.3351 48.6855C24.3351 48.6855 26.0951 48.6501 26.2623 46.3416ZM89.4322 24.4655H89.4585C89.6144 26.182 91.2579 26.2084 91.2579 26.2084C91.2579 26.2084 89.4456 26.2359 89.4456 28.2193C89.4456 26.2359 87.6334 26.2084 87.6334 26.2084C87.6334 26.2084 89.2762 26.182 89.4322 24.4655ZM34.2255 10.2266H34.249C34.3883 11.943 35.8556 11.9695 35.8556 11.9695C35.8556 11.9695 34.2376 11.997 34.2376 13.9805C34.2376 11.997 32.6195 11.9695 32.6195 11.9695C32.6195 11.9695 34.0863 11.9431 34.2255 10.2266Z" fill="#E1E4E5"/>
<path d="M84.7861 67.4385H32.4906C31.9902 67.4385 31.5845 67.8442 31.5845 68.3446C31.5845 68.845 31.9902 69.2507 32.4906 69.2507H84.7861C85.2866 69.2507 85.6922 68.845 85.6922 68.3446C85.6922 67.8442 85.2866 67.4385 84.7861 67.4385Z" fill="url(#paint0_linear_72_59364)"/>
<path fill-rule="evenodd" clip-rule="evenodd" d="M24.9858 31.0047C22.1519 31.0047 19.8541 28.707 19.8541 25.873C19.8541 23.039 22.1519 20.7412 24.9858 20.7412C27.8199 20.7412 30.1176 23.039 30.1176 25.873C30.1176 28.707 27.8199 31.0047 24.9858 31.0047Z" fill="#1F9FDB"/>
<path d="M26.696 25.0967L24.5582 27.2738L23.2749 25.9677" stroke="white" stroke-width="0.776667" stroke-linecap="round" stroke-linejoin="round"/>
</g>
<defs>
<linearGradient id="paint0_linear_72_59364" x1="59.7921" y1="70.2667" x2="59.7902" y2="65.4664" gradientUnits="userSpaceOnUse">
<stop stop-color="white"/>
<stop offset="1" stop-color="#EEEEEE"/>
</linearGradient>
<clipPath id="clip0_72_59364">
<rect width="116.5" height="77.6667" fill="white"/>
</clipPath>
</defs>
</svg>
