<svg width="230" height="154" viewBox="0 0 230 154" fill="none" xmlns="http://www.w3.org/2000/svg">
<g clip-path="url(#clip0_320_61738)">
<path d="M115.006 143.654C152.064 143.654 182.106 113.613 182.106 76.5548C182.106 39.4966 152.064 9.45508 115.006 9.45508C77.9478 9.45508 47.9062 39.4966 47.9062 76.5548C47.9062 113.613 77.9478 143.654 115.006 143.654Z" fill="#1F9FDB"/>
<path d="M48.8669 48.1832L78.4048 40.2686C80.4398 39.7233 82.27 39.3335 83.9662 39.2313C92.9627 38.2804 96.8533 43.4794 101.107 59.3525L108.657 87.5298C112.91 103.403 112.14 109.851 103.873 113.525C102.353 114.285 100.573 114.863 98.5384 115.408L69.0003 123.323C66.9656 123.868 65.1353 124.257 63.4389 124.36C54.4426 125.311 50.552 120.112 46.2988 104.239L38.7487 76.0612C34.4955 60.1881 35.2652 53.7405 43.5319 50.0656C45.0522 49.3061 46.8322 48.7285 48.8669 48.1832Z" fill="white" stroke="#1F9FDB" stroke-width="2.81111"/>
<path d="M73.8496 64.3211L84.3557 61.5059M57.5559 81.5557L57.6159 81.5396L87.5729 73.5129M60.6174 92.9816L60.6775 92.9655L90.6345 84.9385M63.679 104.408L63.7391 104.391L93.696 96.3644M63.6264 67.0604L63.6532 67.0532M54.6211 69.4733L54.6479 69.4662" stroke="#1F9FDB" stroke-width="6.13333" stroke-linecap="round" stroke-linejoin="round"/>
<path d="M151.434 40.2686L180.972 48.1832C183.007 48.7285 184.787 49.3061 186.307 50.0656C194.573 53.7405 195.343 60.1881 191.09 76.0612L183.54 104.239C179.287 120.112 175.396 125.311 166.4 124.36C164.703 124.257 162.873 123.868 160.838 123.323L131.3 115.408C129.265 114.863 127.486 114.285 125.966 113.525C117.699 109.851 116.929 103.403 121.182 87.5298L128.732 59.3525C132.985 43.4794 136.876 38.2804 145.873 39.2313C147.569 39.3335 149.399 39.7233 151.434 40.2686Z" fill="white" stroke="#1F9FDB" stroke-width="2.81111"/>
<path d="M164.996 66.7323L175.502 69.5475M142.268 73.5112L142.328 73.5273L172.285 81.554M139.206 84.9368L139.266 84.9529L169.223 92.9799M136.145 96.3627L136.205 96.3788L166.162 104.406M154.772 63.993L154.8 64.0002M145.767 61.5801L145.794 61.5872" stroke="#1F9FDB" stroke-width="6.13333" stroke-linecap="round" stroke-linejoin="round"/>
<path d="M97.1864 32.2617H132.559C134.995 32.2617 137.157 32.3744 139.083 32.768C149.419 34.3989 152.21 41.3723 152.21 60.3808V94.1235C152.21 113.132 149.419 120.105 139.083 121.736C137.157 122.13 134.995 122.242 132.559 122.242H97.1864C94.7496 122.242 92.5879 122.13 90.6623 121.736C80.3256 120.105 77.5352 113.132 77.5352 94.1235V60.3808C77.5352 41.3723 80.3256 34.3989 90.6623 32.768C92.5879 32.3744 94.7496 32.2617 97.1864 32.2617Z" fill="white" stroke="#1F9FDB" stroke-width="2.81111"/>
<path d="M120.263 57.7715H132.844M96.8984 72.1498H132.844M96.8984 85.8323H132.844M96.8984 99.5149H132.844M108.02 57.7715H108.053M97.2365 57.7715H97.269" stroke="#1F9FDB" stroke-width="6.13333" stroke-linecap="round" stroke-linejoin="round"/>
</g>
<defs>
<clipPath id="clip0_320_61738">
<rect width="230" height="153.333" fill="white"/>
</clipPath>
</defs>
</svg>
