<svg width="231" height="154" viewBox="0 0 231 154" fill="none" xmlns="http://www.w3.org/2000/svg">
<g clip-path="url(#clip0_90_48929)">
<path fill-rule="evenodd" clip-rule="evenodd" d="M148.735 125.442H77.875C73.6724 125.442 70.2656 121.664 70.2656 117.005C70.2656 112.345 73.6724 108.567 77.875 108.567H104.591C107.59 108.567 110.022 105.872 110.023 102.547L110.024 102.262C110.025 99.0879 107.705 96.5136 104.842 96.5136H104.61C97.0609 96.5136 90.973 89.6947 91.0741 81.3261C91.0877 80.1983 91.088 79.0713 91.0749 77.943C90.9778 69.5779 97.0639 62.7637 104.586 62.7637H137.474C140.837 62.7637 143.564 59.7402 143.564 56.0105C143.564 50.2299 147.79 45.5444 153.003 45.5444H160.215C165.428 45.5444 169.654 50.2299 169.654 56.0105V75.066C169.654 80.4447 173.586 84.8044 178.437 84.8044H182.699C189.388 84.8044 194.812 90.8179 194.812 98.2355C194.812 105.653 189.388 111.667 182.699 111.667H160.652C157.578 111.667 155.179 114.453 155.266 117.86L155.271 118.044C155.361 122.105 152.398 125.442 148.735 125.442Z" fill="url(#paint0_linear_90_48929)"/>
<path fill-rule="evenodd" clip-rule="evenodd" d="M82.2682 42.019H153.128C157.331 42.019 160.737 45.8105 160.737 50.4875C160.737 55.1645 157.331 58.956 153.128 58.956H126.412C123.413 58.956 120.981 61.661 120.98 64.9987L120.979 65.2846C120.978 68.4701 123.298 71.0537 126.161 71.0537H126.393C133.942 71.0537 140.03 77.8977 139.929 86.2971C139.915 87.429 139.915 88.561 139.928 89.6928C140.025 98.0886 133.939 104.928 126.417 104.928H93.5295C90.1656 104.928 87.4385 107.963 87.4385 111.706C87.4385 117.508 83.213 122.21 78.0001 122.21H70.7875C65.5749 122.21 61.3491 117.508 61.3491 111.706V92.5803C61.3491 87.1819 57.4167 82.8059 52.5662 82.8059H48.3043C41.6145 82.8059 36.1914 76.7704 36.1914 69.3256C36.1914 61.8807 41.6145 55.8452 48.3043 55.8452H70.3509C73.4248 55.8452 75.8236 53.0488 75.7365 49.6292L75.7322 49.4444C75.6421 45.3688 78.6048 42.019 82.2682 42.019Z" fill="url(#paint1_linear_90_48929)"/>
<path d="M167.859 82.9203C164.919 89.1958 156.526 93.159 156.526 93.159C156.526 93.159 153.067 83.6387 156.007 77.3632C158.952 71.0877 163.986 67.2433 167.26 68.7802C170.533 70.3123 170.799 76.6448 167.859 82.9203ZM149.732 90.3328C153.01 96.4371 151.178 105.534 151.178 105.534C151.178 105.534 141.477 102.632 138.199 96.5228C134.921 90.4139 134.845 84.0812 138.032 82.3731C141.215 80.6652 146.454 84.2288 149.732 90.3328ZM146.163 125.564C146.063 126.763 145.93 127.586 145.897 127.796C145.892 127.819 145.892 127.838 145.887 127.848V127.853C145.887 127.853 145.883 127.853 145.883 127.848L145.849 127.843C145.745 127.81 145.431 127.715 144.96 127.558C142.443 126.706 135.496 123.99 132.742 119.084C129.349 113.042 129.159 106.705 132.309 104.939C135.458 103.169 140.763 106.633 144.156 112.675C145.673 115.383 146.182 118.703 146.273 121.553C146.325 123.086 146.259 124.479 146.163 125.564ZM166.294 107.732C159.585 109.469 151.178 105.539 151.178 105.539C151.178 105.539 156.302 96.7988 163.011 95.0621C169.719 93.3255 175.89 94.7529 176.799 98.2499C177.708 101.752 173.002 105.996 166.294 107.732Z" fill="#E1E4E5"/>
<path d="M160.379 128.162C153.89 130.589 145.121 127.553 145.121 127.553C145.121 127.553 149.308 118.328 155.798 115.901C162.287 113.475 168.577 114.25 169.842 117.638C171.108 121.025 166.874 125.736 160.379 128.162Z" fill="#E1E4E5"/>
<path d="M158.407 90.7605C158.35 90.8459 153.33 99.2625 148.011 122.661C147.621 124.374 147.231 126.172 146.841 128.047L146.727 128.023L145.889 127.847V127.843H145.884L145.851 127.838C145.747 127.804 145.432 127.709 144.961 127.552C145.377 125.546 145.815 123.545 146.275 121.548C151.603 98.3062 156.532 90.1039 156.751 89.7374L158.407 90.7605ZM59.1413 35.218C62.0817 41.4935 70.4744 45.4567 70.4744 45.4567C70.4744 45.4567 73.9333 35.9365 70.9929 29.6609C68.0479 23.3855 63.0142 19.5414 59.7409 21.078C56.4676 22.6101 56.2012 28.9425 59.1413 35.218ZM65.3811 106.636C71.0653 110.6 80.3153 109.836 80.3153 109.836C80.3153 109.836 78.5504 99.8618 72.8666 95.8974C67.1783 91.935 60.8969 91.1226 58.8305 94.0902C56.7615 97.0537 59.6973 102.671 65.3811 106.636ZM86.8038 130.859C94.2608 129.53 100.819 121.791 100.819 121.791C100.819 121.791 91.7467 115.446 84.2898 116.775C76.8316 118.109 71.3491 122.336 72.0455 126.226C72.7369 130.115 79.3471 132.188 86.8038 130.859ZM77.2692 42.6306C73.991 48.7349 75.8226 57.8317 75.8226 57.8317C75.8226 57.8317 85.5238 54.9293 88.8017 48.8203C92.0799 42.7114 92.1561 36.3789 88.9683 34.6708C85.7854 32.963 80.5471 36.5265 77.2692 42.6306ZM80.8371 77.8617C80.9369 79.0606 81.0701 79.8837 81.1035 80.0931C81.1084 80.117 81.1084 80.136 81.113 80.1455V80.1501C81.113 80.1501 81.1179 80.1501 81.1179 80.1455L81.1513 80.1406C81.2557 80.1075 81.5699 80.0123 82.0409 79.8552C84.5577 79.0036 91.5039 76.287 94.2587 71.3816C97.6511 65.3394 97.8413 59.0021 94.6917 57.237C91.5421 55.467 86.2371 58.9307 82.845 64.9729C81.3271 67.6802 80.8181 71.001 80.7277 73.851C80.6754 75.383 80.7419 76.777 80.8371 77.8617ZM60.7072 60.0298C67.4157 61.7664 75.8226 57.8363 75.8226 57.8363C75.8226 57.8363 70.6985 49.0963 63.99 47.3599C57.2818 45.6233 51.111 47.0506 50.2021 50.5475C49.2935 54.0492 53.9987 58.2931 60.7072 60.0298Z" fill="#E1E4E5"/>
<path d="M66.6204 80.4602C73.11 82.8867 81.8785 79.8514 81.8785 79.8514C81.8785 79.8514 77.6918 70.626 71.2022 68.1995C64.7126 65.7732 58.4228 66.5486 57.1572 69.9361C55.8918 73.3236 60.126 78.0339 66.6204 80.4602Z" fill="#E1E4E5"/>
<path d="M68.5938 43.059C68.6507 43.1448 73.6704 51.5611 78.9895 74.9599C79.3797 76.6726 79.7698 78.4711 80.1599 80.3455L80.2741 80.3219L81.1114 80.1458V80.141H81.1163L81.1494 80.1363C81.2541 80.103 81.5683 80.0078 82.0392 79.8509C81.6233 77.8447 81.1856 75.8431 80.7261 73.8465C75.3972 50.605 70.4682 42.4025 70.2495 42.0362L68.5938 43.059ZM165.262 32.0606C162.035 38.9485 152.823 43.2983 152.823 43.2983C152.823 43.2983 149.027 32.8491 152.254 25.9615C155.486 19.0738 161.011 14.8545 164.604 16.5413C168.196 18.2224 168.489 25.173 165.262 32.0606ZM145.366 40.1964C148.964 46.8962 146.953 56.8805 146.953 56.8805C146.953 56.8805 136.306 53.6951 132.708 46.9901C129.11 40.2852 129.026 33.335 132.525 31.4603C136.019 29.5856 141.768 33.4967 145.366 40.1964ZM141.45 78.8648C141.34 80.1807 141.194 81.0842 141.157 81.3139C141.152 81.3399 141.152 81.3609 141.147 81.3714V81.3766C141.147 81.3766 141.142 81.3766 141.142 81.3714L141.105 81.366C140.99 81.3296 140.645 81.2251 140.129 81.0529C137.366 80.1181 129.742 77.1364 126.718 71.7526C122.995 65.1206 122.787 58.1652 126.243 56.2278C129.7 54.2851 135.523 58.0869 139.246 64.7186C140.912 67.6898 141.47 71.3347 141.57 74.4627C141.618 75.9312 141.578 77.4012 141.45 78.8648ZM163.543 59.293C156.18 61.199 146.953 56.8857 146.953 56.8857C146.953 56.8857 152.577 47.293 159.94 45.387C167.303 43.481 174.076 45.0477 175.073 48.8856C176.07 52.729 170.906 57.3869 163.543 59.293Z" fill="#E1E4E5"/>
<path d="M157.051 81.7161C149.929 84.3793 140.305 81.0477 140.305 81.0477C140.305 81.0477 144.9 70.9225 152.023 68.2593C159.146 65.5962 166.049 66.4473 167.438 70.1653C168.827 73.8834 164.179 79.0529 157.051 81.7161Z" fill="#E1E4E5"/>
<path d="M154.886 40.6666C154.823 40.7605 149.314 49.9982 143.476 75.6795C143.03 77.6459 142.601 79.6165 142.191 81.5908L142.066 81.5646L141.147 81.3716V81.3662H141.142L141.106 81.3611C140.991 81.3244 140.646 81.2202 140.129 81.0477C140.585 78.8459 141.066 76.6491 141.57 74.4578C147.419 48.9487 152.829 39.9461 153.069 39.5439L154.886 40.6666Z" fill="#E1E4E5"/>
<path d="M115.502 130.435C142.107 130.435 163.675 108.867 163.675 82.2619C163.675 55.6564 142.107 34.0884 115.502 34.0884C88.8961 34.0884 67.3281 55.6564 67.3281 82.2619C67.3281 108.867 88.8961 130.435 115.502 130.435Z" fill="#1F9FDB"/>
<path d="M115.501 92.5431V84.4519C121.504 84.4519 126.37 79.622 126.37 73.6637C126.37 67.7054 121.504 62.8755 115.501 62.8755C109.499 62.8755 104.633 67.7054 104.633 73.6637M115.501 105.923C115.355 105.923 115.237 106.048 115.237 106.202C115.237 106.356 115.355 106.481 115.501 106.481C115.647 106.481 115.766 106.356 115.766 106.202C115.766 106.048 115.647 105.923 115.501 105.923Z" stroke="white" stroke-width="7.1936" stroke-linecap="round" stroke-linejoin="round"/>
<path d="M65.0081 130.366C66.4862 128.944 68.7926 128.944 70.1594 130.366C71.5262 131.787 71.4359 134.092 69.9577 135.513C68.4796 136.935 66.1732 136.935 64.8064 135.513C63.4396 134.092 63.5299 131.787 65.0081 130.366Z" fill="#1F9FDB"/>
<path d="M181.765 63.9425C179.715 63.9023 178.084 62.2716 178.122 60.3C178.161 58.3285 179.854 56.7627 181.905 56.8028C183.955 56.843 185.586 58.4737 185.547 60.4453C185.509 62.4168 183.815 63.9826 181.765 63.9425Z" fill="#1F9FDB"/>
<path d="M51.9666 106.279C51.2275 106.99 51.2045 108.165 51.9153 108.904C52.626 109.643 53.8014 109.666 54.5406 108.955C55.2797 108.245 55.3027 107.069 54.5919 106.33C53.8812 105.591 52.7058 105.568 51.9666 106.279Z" fill="#E1E4E5"/>
<path d="M181.678 94.189C182.704 94.2091 183.551 93.3942 183.571 92.369C183.591 91.3437 182.776 90.4963 181.751 90.4763C180.726 90.4562 179.878 91.2711 179.858 92.2963C179.838 93.3216 180.653 94.1689 181.678 94.189Z" fill="#E1E4E5"/>
<path d="M45.2381 63.7031C48.1264 62.1101 51.7592 63.1601 53.3522 66.0484C54.9453 68.9366 53.8953 72.5694 51.007 74.1624C48.1187 75.7555 44.4859 74.7055 42.8929 71.8172C41.2999 68.929 42.3499 65.2962 45.2381 63.7031Z" fill="#1F9FDB"/>
<path d="M154.723 134.756C151.554 133.84 149.728 130.529 150.644 127.36C151.56 124.192 154.871 122.365 158.04 123.281C161.209 124.197 163.035 127.508 162.119 130.677C161.203 133.846 157.892 135.672 154.723 134.756Z" fill="#1F9FDB"/>
</g>
<defs>
<linearGradient id="paint0_linear_90_48929" x1="129.883" y1="0.749429" x2="131.463" y2="212.374" gradientUnits="userSpaceOnUse">
<stop stop-color="white"/>
<stop offset="1" stop-color="#EEEEEE"/>
</linearGradient>
<linearGradient id="paint1_linear_90_48929" x1="101.12" y1="167.17" x2="99.5278" y2="-45.2322" gradientUnits="userSpaceOnUse">
<stop stop-color="white"/>
<stop offset="1" stop-color="#EEEEEE"/>
</linearGradient>
<clipPath id="clip0_90_48929">
<rect width="231" height="154" fill="white"/>
</clipPath>
</defs>
</svg>
