<svg width="231" height="155" viewBox="0 0 231 155" fill="none" xmlns="http://www.w3.org/2000/svg">
<g clip-path="url(#clip0_90_42417)">
<path fill-rule="evenodd" clip-rule="evenodd" d="M148.733 125.941H77.8731C73.6704 125.941 70.2637 122.164 70.2637 117.504C70.2637 112.844 73.6704 109.067 77.8731 109.067H104.589C107.588 109.067 110.02 106.371 110.021 103.046L110.022 102.761C110.023 99.5874 107.703 97.0131 104.84 97.0131H104.608C97.0589 97.0131 90.971 90.1942 91.0721 81.8256C91.0858 80.6978 91.086 79.5708 91.0729 78.4425C90.9759 70.0774 97.062 63.2632 104.584 63.2632H137.472C140.835 63.2632 143.563 60.2397 143.563 56.51C143.563 50.7294 147.788 46.0439 153.001 46.0439H160.214C165.426 46.0439 169.652 50.7294 169.652 56.51V75.5655C169.652 80.9442 173.584 85.3039 178.435 85.3039H182.697C189.387 85.3039 194.81 91.3174 194.81 98.735C194.81 106.153 189.387 112.166 182.697 112.166H160.65C157.576 112.166 155.177 114.952 155.264 118.359L155.269 118.543C155.359 122.604 152.396 125.941 148.733 125.941Z" fill="url(#paint0_linear_90_42417)"/>
<path fill-rule="evenodd" clip-rule="evenodd" d="M82.2665 42.5195H153.126C157.329 42.5195 160.736 46.311 160.736 50.988C160.736 55.665 157.329 59.4565 153.126 59.4565H126.41C123.411 59.4565 120.979 62.1615 120.978 65.4992L120.977 65.7851C120.976 68.9706 123.296 71.5542 126.159 71.5542H126.391C133.94 71.5542 140.028 78.3982 139.927 86.7976C139.914 87.9295 139.913 89.0614 139.926 90.1933C140.023 98.5891 133.937 105.428 126.416 105.428H93.5277C90.1639 105.428 87.4368 108.463 87.4368 112.206C87.4368 118.008 83.2113 122.711 77.9984 122.711H70.7858C65.5732 122.711 61.3474 118.008 61.3474 112.206V93.0808C61.3474 87.6823 57.415 83.3064 52.5645 83.3064H48.3026C41.6128 83.3064 36.1897 77.2709 36.1897 69.826C36.1897 62.3812 41.6128 56.3456 48.3026 56.3456H70.3492C73.423 56.3456 75.8218 53.5493 75.7348 50.1297L75.7305 49.9449C75.6404 45.8693 78.6031 42.5195 82.2665 42.5195Z" fill="url(#paint1_linear_90_42417)"/>
<path d="M167.86 83.4198C164.919 89.6953 156.527 93.6585 156.527 93.6585C156.527 93.6585 153.068 84.1382 156.008 77.8627C158.953 71.5872 163.987 67.7428 167.26 69.2798C170.534 70.8118 170.8 77.1443 167.86 83.4198ZM149.732 90.8323C153.011 96.9366 151.179 106.034 151.179 106.034C151.179 106.034 141.478 103.131 138.2 97.0223C134.922 90.9134 134.845 84.5807 138.033 82.8726C141.216 81.1647 146.454 84.7283 149.732 90.8323ZM146.164 126.064C146.064 127.263 145.931 128.086 145.898 128.295C145.893 128.319 145.893 128.338 145.888 128.347V128.352C145.888 128.352 145.884 128.352 145.884 128.347L145.85 128.343C145.745 128.309 145.432 128.214 144.96 128.057C142.443 127.206 135.497 124.489 132.742 119.584C129.35 113.541 129.16 107.204 132.309 105.439C135.459 103.669 140.764 107.133 144.156 113.175C145.674 115.882 146.183 119.203 146.274 122.053C146.326 123.585 146.259 124.979 146.164 126.064ZM166.294 108.232C159.586 109.968 151.179 106.038 151.179 106.038C151.179 106.038 156.303 97.2983 163.012 95.5617C169.72 93.8251 175.891 95.2524 176.8 98.7495C177.708 102.251 173.003 106.495 166.294 108.232Z" fill="#E1E4E5"/>
<path d="M160.38 128.662C153.891 131.089 145.122 128.053 145.122 128.053C145.122 128.053 149.309 118.828 155.799 116.401C162.288 113.975 168.578 114.75 169.843 118.138C171.109 121.525 166.875 126.236 160.38 128.662Z" fill="#E1E4E5"/>
<path d="M158.406 91.2609C158.349 91.3464 153.329 99.763 148.01 123.162C147.62 124.875 147.23 126.673 146.84 128.548L146.726 128.524L145.888 128.348V128.343H145.883L145.85 128.338C145.746 128.305 145.431 128.21 144.96 128.053C145.376 126.047 145.814 124.045 146.274 122.048C151.602 98.8067 156.531 90.6044 156.75 90.2379L158.406 91.2609ZM59.1403 35.7185C62.0807 41.994 70.4735 45.9572 70.4735 45.9572C70.4735 45.9572 73.9323 36.4369 70.9919 30.1614C68.0469 23.8859 63.0132 20.0418 59.7399 21.5785C56.4666 23.1105 56.2002 29.443 59.1403 35.7185ZM65.3802 107.136C71.0643 111.101 80.3143 110.337 80.3143 110.337C80.3143 110.337 78.5495 100.362 72.8656 96.3979C67.1773 92.4354 60.8959 91.6231 58.8295 94.5907C56.7605 97.5541 59.6963 103.172 65.3802 107.136ZM86.8028 131.359C94.2598 130.03 100.818 122.291 100.818 122.291C100.818 122.291 91.7457 115.947 84.2888 117.275C76.8306 118.609 71.3482 122.836 72.0445 126.727C72.736 130.616 79.3462 132.688 86.8028 131.359ZM77.2682 43.1311C73.99 49.2354 75.8216 58.3321 75.8216 58.3321C75.8216 58.3321 85.5228 55.4298 88.8007 49.3208C92.0789 43.2119 92.1551 36.8794 88.9673 35.1713C85.7844 33.4635 80.5461 37.027 77.2682 43.1311ZM80.8361 78.3622C80.936 79.561 81.0692 80.3842 81.1025 80.5936C81.1074 80.6175 81.1074 80.6365 81.112 80.646V80.6506C81.112 80.6506 81.1169 80.6506 81.1169 80.646L81.1503 80.6411C81.2547 80.608 81.5689 80.5128 82.0399 80.3557C84.5568 79.5041 91.5029 76.7875 94.2577 71.8821C97.6501 65.8399 97.8403 59.5025 94.6907 57.7374C91.5412 55.9675 86.2361 59.4312 82.844 65.4734C81.3261 68.1807 80.8171 71.5015 80.7268 74.3515C80.6744 75.8835 80.7409 77.2775 80.8361 78.3622ZM60.7063 60.5302C67.4148 62.2668 75.8216 58.3368 75.8216 58.3368C75.8216 58.3368 70.6975 49.5968 63.989 47.8604C57.2808 46.1238 51.11 47.5511 50.2012 51.0479C49.2926 54.5496 53.9978 58.7936 60.7063 60.5302Z" fill="#E1E4E5"/>
<path d="M66.62 80.9597C73.1095 83.3863 81.878 80.3509 81.878 80.3509C81.878 80.3509 77.6913 71.1255 71.2017 68.699C64.7122 66.2727 58.4223 67.0481 57.1567 70.4356C55.8913 73.8231 60.1255 78.5335 66.62 80.9597Z" fill="#E1E4E5"/>
<path d="M68.595 43.559C68.652 43.6448 73.6716 52.0611 78.9907 75.4599C79.3809 77.1726 79.771 78.9711 80.1611 80.8455L80.2754 80.8219L81.1126 80.6458V80.641H81.1175L81.1506 80.6363C81.2553 80.603 81.5695 80.5078 82.0405 80.3509C81.6245 78.3447 81.1868 76.3431 80.7274 74.3465C75.3984 51.105 70.4694 42.9025 70.2507 42.5362L68.595 43.559ZM165.263 32.5606C162.036 39.4485 152.824 43.7983 152.824 43.7983C152.824 43.7983 149.028 33.3491 152.255 26.4615C155.487 19.5738 161.012 15.3545 164.605 17.0413C168.198 18.7224 168.49 25.673 165.263 32.5606ZM145.367 40.6964C148.965 47.3962 146.955 57.3805 146.955 57.3805C146.955 57.3805 136.307 54.1951 132.709 47.4901C129.111 40.7852 129.028 33.835 132.526 31.9603C136.02 30.0856 141.769 33.9967 145.367 40.6964ZM141.451 79.3648C141.341 80.6807 141.195 81.5842 141.158 81.8139C141.153 81.8399 141.153 81.8609 141.148 81.8714V81.8766C141.148 81.8766 141.143 81.8766 141.143 81.8714L141.106 81.866C140.991 81.8296 140.647 81.7251 140.13 81.5529C137.367 80.6181 129.743 77.6364 126.72 72.2526C122.997 65.6206 122.788 58.6652 126.245 56.7278C129.701 54.7851 135.524 58.5869 139.247 65.2186C140.913 68.1898 141.472 71.8347 141.571 74.9627C141.619 76.4312 141.579 77.9012 141.451 79.3648ZM163.544 59.793C156.181 61.699 146.954 57.3857 146.954 57.3857C146.954 57.3857 152.578 47.793 159.941 45.887C167.304 43.981 174.077 45.5477 175.074 49.3856C176.072 53.229 170.907 57.8869 163.544 59.793Z" fill="#E1E4E5"/>
<path d="M157.053 82.2156C149.93 84.8788 140.306 81.5473 140.306 81.5473C140.306 81.5473 144.902 71.422 152.024 68.7588C159.147 66.0957 166.05 66.9468 167.439 70.6649C168.828 74.3829 164.181 79.5524 157.053 82.2156Z" fill="#E1E4E5"/>
<path d="M154.886 41.1666C154.823 41.2605 149.314 50.4982 143.476 76.1795C143.029 78.1459 142.601 80.1165 142.191 82.0908L142.066 82.0646L141.147 81.8716V81.8662H141.142L141.105 81.8611C140.99 81.8244 140.646 81.7202 140.129 81.5477C140.585 79.3459 141.066 77.1491 141.57 74.9578C147.419 49.4487 152.828 40.4461 153.069 40.0439L154.886 41.1666Z" fill="#E1E4E5"/>
<path d="M115.5 130.936C142.105 130.936 163.673 109.368 163.673 82.7624C163.673 56.1569 142.105 34.5889 115.5 34.5889C88.8942 34.5889 67.3262 56.1569 67.3262 82.7624C67.3262 109.368 88.8942 130.936 115.5 130.936Z" fill="#E35D6A"/>
<path d="M115.5 93.0426V84.9514C121.502 84.9514 126.368 80.1215 126.368 74.1632C126.368 68.205 121.502 63.375 115.5 63.375C109.497 63.375 104.631 68.205 104.631 74.1632M115.5 106.423C115.354 106.423 115.235 106.548 115.235 106.702C115.235 106.856 115.354 106.981 115.5 106.981C115.646 106.981 115.764 106.856 115.764 106.702C115.764 106.548 115.646 106.423 115.5 106.423Z" stroke="white" stroke-width="7.1936" stroke-linecap="round" stroke-linejoin="round"/>
<path d="M65.0093 130.866C66.4875 129.444 68.7938 129.444 70.1606 130.866C71.5274 132.287 71.4371 134.592 69.959 136.013C68.4808 137.435 66.1744 137.435 64.8076 136.013C63.4408 134.592 63.5311 132.287 65.0093 130.866Z" fill="#E35D6A"/>
<path d="M181.767 64.4429C179.716 64.4028 178.085 62.772 178.124 60.8005C178.163 58.8289 179.856 57.2632 181.906 57.3033C183.957 57.3435 185.588 58.9742 185.549 60.9458C185.51 62.9173 183.817 64.4831 181.767 64.4429Z" fill="#E35D6A"/>
<path d="M51.9657 106.779C51.2265 107.49 51.2035 108.665 51.9143 109.405C52.6251 110.144 53.8004 110.167 54.5396 109.456C55.2787 108.745 55.3017 107.57 54.591 106.831C53.8802 106.091 52.7048 106.068 51.9657 106.779Z" fill="#E1E4E5"/>
<path d="M181.677 94.6885C182.702 94.7086 183.549 93.8937 183.569 92.8685C183.59 91.8432 182.775 90.9958 181.749 90.9758C180.724 90.9557 179.877 91.7706 179.857 92.7958C179.837 93.8211 180.652 94.6685 181.677 94.6885Z" fill="#E1E4E5"/>
<path d="M45.2379 64.2031C48.1262 62.6101 51.759 63.6601 53.352 66.5484C54.945 69.4366 53.895 73.0694 51.0068 74.6624C48.1185 76.2555 44.4857 75.2055 42.8927 72.3172C41.2996 69.429 42.3496 65.7962 45.2379 64.2031Z" fill="#E35D6A"/>
<path d="M154.723 135.256C151.555 134.34 149.728 131.029 150.644 127.86C151.56 124.692 154.871 122.865 158.04 123.781C161.209 124.697 163.035 128.008 162.119 131.177C161.203 134.346 157.892 136.172 154.723 135.256Z" fill="#E35D6A"/>
</g>
<defs>
<linearGradient id="paint0_linear_90_42417" x1="129.881" y1="1.24894" x2="131.461" y2="212.873" gradientUnits="userSpaceOnUse">
<stop stop-color="white"/>
<stop offset="1" stop-color="#EEEEEE"/>
</linearGradient>
<linearGradient id="paint1_linear_90_42417" x1="101.118" y1="167.67" x2="99.526" y2="-44.7317" gradientUnits="userSpaceOnUse">
<stop stop-color="white"/>
<stop offset="1" stop-color="#EEEEEE"/>
</linearGradient>
<clipPath id="clip0_90_42417">
<rect width="231" height="154" fill="white" transform="translate(-0.000244141 0.5)"/>
</clipPath>
</defs>
</svg>
