<svg width="231" height="154" viewBox="0 0 231 154" fill="none" xmlns="http://www.w3.org/2000/svg">
<g clip-path="url(#clip0_90_44415)">
<path d="M60.2605 87.0381C57.7478 67.8533 70.9872 45.0388 99.2013 48.499C123.133 51.4333 128.321 47.6498 138.623 42.2584C145.427 38.6995 156.07 32.4024 164.704 50.4093C176.006 73.9772 149.502 110.929 125.83 122.263C103.194 133.101 64.818 121.853 60.2605 87.0381Z" fill="#1F9FDB"/>
<path d="M63.0058 52.9102L70.3379 45.5781C70.6049 45.3111 70.6049 44.8783 70.3379 44.6113C70.0709 44.3444 69.6381 44.3444 69.3711 44.6113L62.039 51.9434C61.7721 52.2104 61.7721 52.6433 62.039 52.9102C62.306 53.1772 62.7388 53.1772 63.0058 52.9102Z" fill="#E1E4E5"/>
<path d="M60.6748 119.866L65.031 115.51C65.1897 115.351 65.1898 115.094 65.0311 114.935C64.8725 114.777 64.6153 114.777 64.4566 114.936L60.1003 119.292C59.9416 119.45 59.9416 119.708 60.1002 119.866C60.2589 120.025 60.5161 120.025 60.6748 119.866Z" fill="#E1E4E5"/>
<path d="M168.774 99.5947L164.418 103.951C164.26 104.11 164.259 104.367 164.418 104.526C164.577 104.684 164.834 104.684 164.993 104.525L169.349 100.169C169.508 100.01 169.508 99.7532 169.349 99.5946C169.19 99.436 168.933 99.436 168.774 99.5947Z" fill="#E1E4E5"/>
<path d="M63.7228 47.6595L65.8374 45.5449C66.1044 45.2779 66.1044 44.8451 65.8374 44.5781C65.5704 44.3112 65.1376 44.3112 64.8706 44.5781L62.756 46.6928C62.4891 46.9597 62.4891 47.3926 62.756 47.6595C63.023 47.9265 63.4558 47.9265 63.7228 47.6595Z" fill="#E1E4E5"/>
<path d="M61.1009 116.747L62.3572 115.49C62.5159 115.332 62.5159 115.075 62.3573 114.916C62.1987 114.757 61.9414 114.757 61.7827 114.916L60.5265 116.172C60.3678 116.331 60.3678 116.588 60.5264 116.747C60.685 116.905 60.9423 116.905 61.1009 116.747Z" fill="#E1E4E5"/>
<path d="M168.348 102.713L167.092 103.97C166.933 104.128 166.933 104.385 167.091 104.544C167.25 104.703 167.507 104.703 167.666 104.544L168.922 103.288C169.081 103.129 169.081 102.872 168.922 102.713C168.764 102.555 168.506 102.555 168.348 102.713Z" fill="#E1E4E5"/>
<path d="M125.277 127.935C124.108 128.215 122.537 128.818 121.647 130.018C120.757 131.218 121.834 131.573 123.256 131.342C124.678 131.112 126.089 130.31 126.661 129.18C127.233 128.051 126.236 127.705 125.277 127.935ZM131.035 125.7C130.47 125.835 129.712 126.126 129.282 126.706C128.852 127.286 129.372 127.457 130.059 127.346C130.746 127.234 131.428 126.847 131.704 126.301C131.98 125.756 131.499 125.589 131.035 125.7ZM152.057 117.923C153.525 116.917 153.668 114.574 153.668 114.574C153.668 114.574 151.432 113.864 149.965 114.872C148.498 115.878 148.353 118.22 148.353 118.22C148.353 118.22 150.589 118.93 152.057 117.923Z" fill="#E1E4E5"/>
<path d="M148.087 32.0525C149.168 32.0525 150.044 31.1139 150.044 29.956C150.044 28.798 149.168 27.8594 148.087 27.8594C147.006 27.8594 146.13 28.798 146.13 29.956C146.13 31.1139 147.006 32.0525 148.087 32.0525Z" fill="#E1E4E5"/>
<path d="M175.484 86.2866C176.102 86.2866 176.602 85.5355 176.602 84.6091C176.602 83.6827 176.102 82.9316 175.484 82.9316C174.866 82.9316 174.366 83.6827 174.366 84.6091C174.366 85.5355 174.866 86.2866 175.484 86.2866Z" fill="#E1E4E5"/>
<path d="M92.7344 85.6066L105.032 98.0281L131.873 70.9111" stroke="white" stroke-width="11.7415" stroke-linecap="round" stroke-linejoin="round"/>
<path d="M124.655 42.6701C116.66 44.7869 107.973 38.1877 107.973 38.1877C107.973 38.1877 112.253 28.1597 120.251 26.0488C128.246 23.932 136.93 30.5256 136.93 30.5256C136.93 30.5256 132.65 40.5534 124.655 42.6701Z" fill="url(#paint0_linear_90_44415)"/>
<path d="M180.229 62.9308C177.825 65.3775 173.33 64.8618 173.33 64.8618C173.33 64.8618 172.735 60.3788 175.141 57.9334C177.545 55.4867 182.038 56.0011 182.038 56.0011C182.038 56.0011 182.633 60.4841 180.229 62.9308Z" fill="url(#paint1_linear_90_44415)"/>
<path d="M51.2201 81.2545C53.4589 81.2545 55.2737 83.1945 55.2737 85.5877C55.2737 87.9809 53.4589 89.9209 51.2201 89.9209C48.9814 89.9209 47.1665 87.9809 47.1665 85.5877C47.1665 83.1945 48.9814 81.2545 51.2201 81.2545Z" fill="#E1E4E5"/>
<path d="M50.3814 61.6845C51.2307 61.6845 51.9191 61.0586 51.9191 60.2866C51.9191 59.5145 51.2307 58.8887 50.3814 58.8887C49.5322 58.8887 48.8438 59.5145 48.8438 60.2866C48.8438 61.0586 49.5322 61.6845 50.3814 61.6845Z" fill="#E1E4E5"/>
<path d="M90.0789 42.1157C91.7 42.1157 93.0142 40.8016 93.0142 39.1804C93.0142 37.5593 91.7 36.2451 90.0789 36.2451C88.4577 36.2451 87.1436 37.5593 87.1436 39.1804C87.1436 40.8016 88.4577 42.1157 90.0789 42.1157Z" fill="#E1E4E5"/>
<path d="M172.579 35.1279H172.52C172.171 40.1136 168.495 40.1902 168.495 40.1902C168.495 40.1902 172.548 40.27 172.548 46.0307C172.548 40.27 176.602 40.1902 176.602 40.1902C176.602 40.1902 172.928 40.1136 172.579 35.1279Z" fill="#E1E4E5"/>
</g>
<defs>
<linearGradient id="paint0_linear_90_44415" x1="94.4847" y1="48.2032" x2="164.036" y2="13.0857" gradientUnits="userSpaceOnUse">
<stop stop-color="white"/>
<stop offset="1" stop-color="#EEEEEE"/>
</linearGradient>
<linearGradient id="paint1_linear_90_44415" x1="170.638" y1="71.2885" x2="188.017" y2="44.0444" gradientUnits="userSpaceOnUse">
<stop stop-color="white"/>
<stop offset="1" stop-color="#EEEEEE"/>
</linearGradient>
<clipPath id="clip0_90_44415">
<rect width="230" height="153.333" fill="white" transform="translate(0.536133 0.0244141)"/>
</clipPath>
</defs>
</svg>
