<svg width="50" height="17" viewBox="0 0 50 17" fill="none" xmlns="http://www.w3.org/2000/svg">
<path d="M25.8588 5.76123C25.8303 8.01045 27.8633 9.26553 29.3947 10.0118C30.9682 10.7774 31.4967 11.2685 31.4904 11.9532C31.4787 13.0011 30.2354 13.4636 29.0719 13.4815C27.042 13.513 25.8617 12.9335 24.9234 12.4952L24.1922 15.9169C25.1336 16.3507 26.8768 16.729 28.6844 16.7456C32.9275 16.7456 35.7035 14.6511 35.7186 11.4036C35.7352 7.28213 30.0178 7.054 30.0568 5.21182C30.0703 4.65322 30.6033 4.05713 31.7713 3.90557C32.3494 3.829 33.9453 3.77041 35.7547 4.60361L36.4648 1.29307C35.4918 0.93877 34.2412 0.599512 32.6842 0.599512C28.6904 0.599512 25.8814 2.72256 25.8588 5.76123ZM43.2887 0.884668C42.5139 0.884668 41.8609 1.33662 41.5695 2.03018L35.5084 16.5024H39.7484L40.5922 14.1706H45.7734L46.2629 16.5024H50L46.7389 0.884668H43.2887ZM43.8818 5.10361L45.1055 10.9683H41.7543L43.8818 5.10361ZM20.718 0.884863L17.3758 16.5022H21.4162L24.7568 0.884473H20.718M14.7408 0.884473L10.5354 11.5147L8.83418 2.47627C8.63457 1.46729 7.84629 0.884668 6.9709 0.884668H0.0962891L0 1.33818C1.41133 1.64443 3.01484 2.13838 3.98633 2.66689C4.58086 2.98975 4.75039 3.27197 4.9457 4.03916L8.16777 16.5024H12.4375L18.9836 0.884668H14.7408" fill="url(#paint0_linear_977_28439)"/>
<defs>
<linearGradient id="paint0_linear_977_28439" x1="22.987" y1="17.0695" x2="23.4544" y2="0.487222" gradientUnits="userSpaceOnUse">
<stop stop-color="#222357"/>
<stop offset="1" stop-color="#254AA5"/>
</linearGradient>
</defs>
</svg>
